<svg width="16" height="16" viewBox="0 0 16 16" fill="none" xmlns="http://www.w3.org/2000/svg">
<path id="Vector" d="M0 0.0374994C0 0.0562496 1.3824 2.0375 3.0656 4.43125C4.7552 6.83125 6.144 8.81875 6.1568 8.85625C6.1696 8.8875 4.7936 10.4875 3.104 12.4C1.4144 14.3188 0.0256 15.9125 0.0128 15.9437C0 15.975 0.32 16 0.7232 16H1.4592L4.16 12.9375C5.6448 11.2562 6.8672 9.875 6.88 9.875C6.8928 9.875 7.8656 11.2562 9.0496 12.9375L11.2064 16H13.6064C14.9952 16 16 15.975 16 15.9437C16 15.9125 14.6112 13.9062 12.9088 11.4875C11.2064 9.075 9.7664 7.01875 9.7024 6.925L9.5936 6.7625L10.0288 6.26875C10.272 6 11.616 4.48125 13.0112 2.8875L15.5584 0H14.7968H14.0288L11.5456 2.825C10.176 4.375 9.024 5.6875 8.9856 5.7375C8.9344 5.80625 8.4864 5.20625 6.8736 2.9125L4.832 0.00624943L2.4192 0C1.088 0 0 0.0187502 0 0.0374994ZM8.992 7.94375C11.7056 11.7312 13.9456 14.8687 13.9712 14.9187C14.016 14.9875 13.856 15 12.9856 14.9875L11.9424 14.9688L10.4 12.8125C9.5552 11.625 7.3152 8.5 5.4272 5.85625L1.9904 1.0625H3.0272H4.064L8.992 7.94375Z" fill="#FEFEFE"/>
</svg>
