<svg width="6" height="10" viewBox="0 0 6 10" fill="none" xmlns="http://www.w3.org/2000/svg">
<g id="Black">
<path id="Vector" d="M3.21078 0.0502291C2.70588 0.141553 2.2451 0.410959 1.96569 0.771689C1.64706 1.18265 1.56863 1.49315 1.53922 2.42922L1.51961 3.24201H1.0098H0.5V4.13242V5.02283H1.01471H1.52941V7.51142V10H2.68137H3.83333V7.51142V5.02283H4.56373H5.29902L5.32353 4.82648C5.36275 4.58448 5.5 3.3516 5.5 3.28767C5.5 3.26027 5.21078 3.24201 4.66667 3.24201H3.83333V2.63014C3.83333 1.78082 3.79902 1.81279 4.75 1.78082L5.47549 1.75799L5.4902 0.876713L5.5 0L4.46078 0.00456619C3.88725 0.00913239 3.32353 0.0273981 3.21078 0.0502291Z" fill="#FEFEFE"/>
</g>
</svg>
