<svg width="20" height="16" viewBox="0 0 20 16" fill="none" xmlns="http://www.w3.org/2000/svg">
<path id="Vector" d="M18.3798 0.0258837C18.3331 0.0386438 18.0108 0.157736 17.6587 0.293839C8.95522 3.65392 1.22725 6.64822 1.08728 6.72053C0.671612 6.93319 0.501953 7.13735 0.501953 7.41381C0.501953 7.61796 0.69282 7.83063 0.98124 7.94547C1.27814 8.06456 5.40086 9.3533 5.48569 9.3533C5.51962 9.3533 7.79729 7.93271 10.5458 6.19737C13.29 4.46204 15.6271 3.00742 15.7331 2.96064C15.9452 2.87132 16.153 2.88833 16.153 2.99466C16.153 3.02444 16.1106 3.101 16.0597 3.16054C16.0046 3.21583 14.1595 4.89587 11.9539 6.89066C9.74837 8.88544 7.9415 10.5485 7.93726 10.5825C7.92454 10.6548 7.62763 14.8868 7.62763 14.9634C7.62763 15.0314 7.90333 15.0186 8.06875 14.9506C8.22568 14.8825 8.61166 14.538 9.80775 13.3811L10.6348 12.5815L12.798 14.1808C13.9898 15.0612 15.0714 15.8268 15.1987 15.8863C15.6059 16.0735 16.0258 16.0267 16.2675 15.7672C16.4966 15.5205 16.5559 15.2781 18.0362 8.26021C19.6607 0.570302 19.614 0.855271 19.385 0.417185C19.2366 0.132215 19.0033 -0.00814247 18.6809 0.000364304C18.5622 0.00461769 18.4264 0.0173779 18.3798 0.0258837Z" fill="#FEFEFE"/>
</svg>
